<svg width="182" height="180" viewBox="0 0 182 180" fill="none" xmlns="http://www.w3.org/2000/svg">
<path d="M63.2139 176.293C46.3331 177.543 26.1861 182.055 11.3868 171.705C-2.49022 161.939 -3.40407 144.746 7.12213 132.065C12.5545 125.475 22.5899 134.236 17.1491 140.741C10.2952 149.004 12.9691 158.433 22.4122 162.86C27.8445 165.445 34.1992 165.031 40.0461 164.693C47.4839 164.195 54.9216 163.603 62.3593 163.02C70.8209 162.437 71.7432 175.625 63.2139 176.293Z" fill="url(#paint0_linear)"/>
<path d="M134.096 81.6521C130.085 63.7074 129.916 52.6061 126.574 35.6668L120.803 9.375L106.926 16.3028C103.753 15.4664 100.241 15.2974 96.3914 16.0493C94.386 16.3873 90.0368 18.0516 90.0368 18.0516L76.4136 14.5455C76.4136 14.5455 78.3344 28.815 78.8336 39.9164C79.6713 59.1114 75.0682 73.4655 70.389 86.4002C63.4505 105.764 46.815 121.707 44.2258 135.393C41.2134 151.335 48.905 173.699 64.5336 177.289C72.7244 179.207 94.2083 177.957 106.664 176.951C120.541 175.786 128.816 174.611 137.921 173.614C146.45 172.609 159.65 154.588 150.706 128.634C146.721 117.203 139.199 104.598 134.096 81.6521Z" fill="url(#paint1_linear)"/>
<path d="M146.163 79.5396L156.52 55.3346C157.087 52.8677 159.625 51.3469 162.054 51.989C164.524 52.5551 166.048 55.0896 165.404 57.5143L161.927 81.863C160.954 88.833 157.764 95.2877 152.695 100.154C146.264 106.364 135.891 111.044 120.66 103.145L133.75 80.7224C133.75 80.7224 134.554 81.6687 135.95 82.5811C139.597 84.9889 144.521 83.5104 146.163 79.5396Z" fill="#FFD590"/>
<path d="M105.259 51.77C104.591 51.77 104.007 51.2716 103.923 50.6041L103.169 44.8423C103.085 44.0903 103.584 43.4229 104.337 43.3384C105.09 43.2539 105.759 43.7524 105.843 44.5043L106.596 50.2662C106.681 51.0181 106.173 51.6856 105.429 51.77C105.429 51.77 105.344 51.77 105.259 51.77Z" fill="#33312D"/>
<path d="M99.996 42.1721C99.8267 40.5837 101.917 40.0853 103.846 39.9163C105.767 39.7473 107.772 39.5784 107.941 41.1667C108.111 42.755 106.351 45.5092 104.345 45.6698C102.416 45.7627 100.157 43.7604 99.996 42.1721Z" fill="#33312D"/>
<path d="M94.5384 179.926C98.6422 179.343 101.045 177.425 100.944 171.418L101.976 121.927C101.392 117.829 89.2414 114.188 85.1291 114.771L85.5268 116.503C81.4229 117.086 73.5029 121.183 74.0867 125.281L86.0176 173.53C86.6014 177.628 90.4345 180.509 94.5384 179.926Z" fill="#FFD590"/>
<path d="M125.702 6.7973C115.582 7.62525 107.645 15.2036 105.945 24.7335C105.818 26.0092 105.801 27.3188 105.911 28.6452C106.901 40.6759 117.478 49.6229 129.527 48.6344C131.82 48.4485 134.003 47.9078 136.026 47.0799C137.709 35.6321 135.983 16.0738 132.125 7.21128C130.077 6.7635 127.911 6.61143 125.702 6.7973Z" fill="#FFD590"/>
<path d="M119.547 33.6953C122.384 33.5486 124.548 30.8005 124.38 27.5572C124.212 24.3139 121.775 21.8036 118.938 21.9503C116.1 22.0969 113.936 24.845 114.104 28.0883C114.272 31.3317 116.709 33.842 119.547 33.6953Z" fill="#120B09"/>
<path d="M92.7057 38.7247C94.2879 38.6429 95.4944 37.1109 95.4007 35.3028C95.307 33.4948 93.9484 32.0953 92.3662 32.1771C90.7841 32.2589 89.5775 33.7909 89.6712 35.599C89.7649 37.407 91.1235 38.8064 92.7057 38.7247Z" fill="#120B09"/>
<path d="M181.414 67.3312L179.045 70.3474C178.393 71.1838 177.183 71.3274 176.346 70.6684L146.493 47.2744L151.24 41.2422L181.093 64.6362C181.922 65.2951 182.066 66.4948 181.414 67.3312Z" fill="url(#paint2_linear)"/>
<path d="M106.174 10.8023C96.5273 23.0696 98.6681 40.8199 110.954 50.4428C123.241 60.0741 141.018 57.9366 150.656 45.6694C160.302 33.4021 158.161 15.6518 145.875 6.02892C133.589 -3.60239 115.811 -1.46491 106.174 10.8023ZM144.411 40.7692C137.481 49.5895 124.696 51.1271 115.862 44.2078C107.028 37.2885 105.488 24.5227 112.418 15.7025C119.348 6.88223 132.134 5.3446 140.968 12.2639C149.801 19.1833 151.341 31.949 144.411 40.7692Z" fill="#72ACF1"/>
<defs>
<linearGradient id="paint0_linear" x1="6.70252" y1="154.034" x2="75.8757" y2="154.034" gradientUnits="userSpaceOnUse">
<stop stop-color="#FFD590"/>
<stop offset="1" stop-color="#D28D29"/>
</linearGradient>
<linearGradient id="paint1_linear" x1="98.5309" y1="129.646" x2="99.6302" y2="254.057" gradientUnits="userSpaceOnUse">
<stop stop-color="#FFD590"/>
<stop offset="1" stop-color="#D28D29"/>
</linearGradient>
<linearGradient id="paint2_linear" x1="154.512" y1="33.441" x2="170.382" y2="71.5333" gradientUnits="userSpaceOnUse">
<stop offset="0.000351356" stop-color="#2970B8"/>
<stop offset="0.4722" stop-color="#72ACF1"/>
</linearGradient>
</defs>
</svg>
