<svg width="192" height="180" viewBox="0 0 192 180" fill="none" xmlns="http://www.w3.org/2000/svg">
<path d="M6.67528 154.007L4.3501 151.491C10.8966 145.521 24.762 142.383 45.5513 142.178L45.9717 142.17L46.0061 145.581H45.5856C31.9005 145.726 14.0284 147.295 6.67528 154.007Z" fill="#72ACF1"/>
<path d="M97.3657 109.277L100.309 145.965L118.764 151.806C123.003 154.604 121.012 161.179 115.916 161.179L90.0126 161.093L74.397 109.277H97.3657Z" fill="#BF8B00"/>
<path d="M110.15 158.39C127.302 158.466 148.057 161.639 162.342 150.126C175.719 139.347 175.401 121.881 163.904 109.866C157.907 103.597 148.374 113.089 154.363 119.349C161.888 127.211 159.82 136.865 150.596 142.016C145.268 144.992 138.782 145.043 132.836 145.069C125.277 145.103 117.709 145.009 110.15 144.975C101.467 144.941 101.459 158.356 110.15 158.39Z" fill="url(#paint0_radial)"/>
<path d="M125.131 70.1682C122.351 51.833 120.944 39.2287 120.686 21.806L121.561 2.79718L106.478 7.20614C103.466 5.80755 99.9828 5.03151 95.9759 5.03151C93.9081 5.03151 89.2234 5.90989 89.2234 5.90989L76.199 0C76.199 0 73.6507 10.6685 72.132 21.789C69.498 41.0452 67.3101 57.9817 61.6816 70.7652C53.2989 89.8081 43.7236 104.681 40.1286 118.36C35.9673 134.196 42.1792 157.273 57.7348 161.997C65.9287 164.479 79.3564 164.735 92.0034 164.59C106.152 164.419 114.62 163.805 123.938 163.387C132.638 162.995 147.276 145.735 140.094 118.965C136.92 107.103 128.709 93.731 125.131 70.1682Z" fill="url(#paint1_linear)"/>
<path d="M78.6101 167.55C74.9035 167.874 72.0463 165.691 71.2741 161.452L60.2574 118.616C59.9314 114.932 69.807 109.304 73.5135 108.979L73.5221 110.566C77.2287 110.242 84.985 112.195 85.3111 115.879L84.7533 160.267C84.9249 165.017 82.3166 167.226 78.6101 167.55Z" fill="#FFD590"/>
<path d="M94.8256 167.25C91.1448 166.73 88.9912 165.016 89.077 159.652L88.1504 115.451C88.6738 111.793 99.579 108.544 103.26 109.064L102.908 110.607C106.589 111.128 113.702 114.786 113.178 118.445L102.47 161.536C101.956 165.203 98.5065 167.77 94.8256 167.25Z" fill="#FFD590"/>
<path d="M110.021 67.6609C109.978 67.6609 109.927 67.6609 109.875 67.6524C108.932 67.5756 108.228 66.7484 108.305 65.8103C108.314 65.7506 108.777 59.8919 107.885 53.4874C107.095 47.8504 105.079 40.6102 99.9311 38.1456C99.0731 37.7362 98.7214 36.7214 99.1246 35.8686C99.5365 35.0158 100.566 34.6662 101.415 35.067C113.676 40.9342 111.814 65.0684 111.729 66.0918C111.66 66.9872 110.905 67.6609 110.021 67.6609Z" fill="url(#paint2_linear)"/>
<path d="M38.9874 180C19.3734 180 1.81015 172.658 0.137046 162.927C-0.472135 158.425 0.952148 154.595 4.35841 151.491C5.0534 150.852 6.14306 150.903 6.78656 151.594C7.43006 152.284 7.37858 153.367 6.6836 154.007C4.11817 156.352 3.08857 159.098 3.53473 162.416C4.22113 166.373 9.3005 170.415 17.1169 173.152C25.5854 176.12 36.2503 177.246 46.3833 176.222C73.6678 173.161 73.2645 143.449 72.8784 114.71C72.8355 111.452 72.7926 108.084 72.7926 104.852C72.7926 72.9571 74.1054 41.2842 89.781 34.9309C90.6648 34.5727 91.6601 34.9906 92.0204 35.869C92.3808 36.7388 91.9604 37.7366 91.0766 38.0948C76.2246 44.1155 76.2246 82.1418 76.2246 104.86C76.2246 108.075 76.2675 111.427 76.3104 114.676C76.6965 143.518 77.1341 176.205 46.7437 179.625C44.1439 179.881 41.5528 180 38.9874 180Z" fill="#72ACF1"/>
<path d="M88.3397 21.4592C88.4348 19.6342 87.2113 18.0878 85.607 18.0052C84.0027 17.9227 82.6251 19.3352 82.53 21.1603C82.435 22.9853 83.6585 24.5318 85.2628 24.6143C86.8671 24.6969 88.2447 23.2843 88.3397 21.4592Z" fill="#33312D"/>
<path d="M109.898 22.5666C109.993 20.7416 108.77 19.1952 107.166 19.1126C105.561 19.0301 104.184 20.4427 104.089 22.2677C103.994 24.0928 105.217 25.6392 106.821 25.7217C108.426 25.8043 109.803 24.3917 109.898 22.5666Z" fill="#33312D"/>
<path d="M92.089 23.5285C92.2434 21.9253 94.3713 21.8059 96.3618 21.9935C98.3524 22.1811 100.352 22.4199 100.206 24.0232C100.06 25.6264 97.7947 27.9972 95.8127 27.8096C93.8307 27.622 91.9431 25.1403 92.089 23.5285Z" fill="#33312D"/>
<path d="M95.5126 34.6071C95.4955 34.6071 95.4783 34.6071 95.4612 34.6071C94.9378 34.5815 94.5345 34.1381 94.5602 33.6179L94.852 27.7677C94.8777 27.2475 95.2981 26.8467 95.8558 26.8723C96.3792 26.8978 96.7825 27.3413 96.7567 27.8615L96.465 33.7117C96.4393 34.2148 96.0189 34.6071 95.5126 34.6071Z" fill="#33312D"/>
<path d="M106.074 88.9981C105.422 88.9981 104.89 88.4694 104.89 87.8212V74.3556C104.89 73.7074 105.422 73.1787 106.074 73.1787C106.726 73.1787 107.258 73.7074 107.258 74.3556V87.8127C107.267 88.4694 106.735 88.9981 106.074 88.9981Z" fill="white"/>
<path d="M114.234 88.9981C113.582 88.9981 113.05 88.4694 113.05 87.8212V74.3556C113.05 73.7074 113.582 73.1787 114.234 73.1787C114.886 73.1787 115.418 73.7074 115.418 74.3556V87.8127C115.418 88.4694 114.886 88.9981 114.234 88.9981Z" fill="white"/>
<path d="M110.15 81.1353C115.064 81.1353 119.047 77.1759 119.047 72.2917C119.047 67.4076 115.064 63.4482 110.15 63.4482C105.236 63.4482 101.252 67.4076 101.252 72.2917C101.252 77.1759 105.236 81.1353 110.15 81.1353Z" fill="#72ACF1"/>
<path d="M117.254 81.144H103.054C102.059 81.144 101.252 80.3424 101.252 79.3532V72.292H119.056V79.3532C119.056 80.3424 118.249 81.144 117.254 81.144Z" fill="#72ACF1"/>
<path d="M188.657 87.5486H150.613C149.275 87.5486 148.194 86.474 148.194 85.1437V23.5973C148.194 22.2669 149.275 21.1924 150.613 21.1924H188.657C189.996 21.1924 191.077 22.2669 191.077 23.5973V85.1437C191.077 86.474 189.987 87.5486 188.657 87.5486Z" fill="#E1DFDD"/>
<path d="M169.635 51.5344C175.606 51.5344 180.446 46.7236 180.446 40.7892C180.446 34.8548 175.606 30.0439 169.635 30.0439C163.664 30.0439 158.824 34.8548 158.824 40.7892C158.824 46.7236 163.664 51.5344 169.635 51.5344Z" fill="white"/>
<path d="M169.636 48.0634C170.877 48.0634 171.884 47.063 171.884 45.8291C171.884 44.5951 170.877 43.5947 169.636 43.5947C168.394 43.5947 167.388 44.5951 167.388 45.8291C167.388 47.063 168.394 48.0634 169.636 48.0634Z" fill="#33312D"/>
<path d="M171.248 48.0632H168.013C167.662 48.0632 167.378 47.7817 167.378 47.4321V45.8203H171.874V47.4321C171.883 47.7817 171.6 48.0632 171.248 48.0632Z" fill="#33312D"/>
<path d="M165.508 42.2815C165.156 42.2815 164.864 41.9915 164.864 41.6419V34.7939C164.864 34.4442 165.156 34.1543 165.508 34.1543C165.86 34.1543 166.151 34.4442 166.151 34.7939V41.6419C166.151 41.9915 165.868 42.2815 165.508 42.2815Z" fill="#33312D"/>
<path d="M173.753 42.2815C173.401 42.2815 173.109 41.9915 173.109 41.6419V34.7939C173.109 34.4442 173.401 34.1543 173.753 34.1543C174.105 34.1543 174.396 34.4442 174.396 34.7939V41.6419C174.396 41.9915 174.113 42.2815 173.753 42.2815Z" fill="#33312D"/>
<path d="M169.635 78.6956C175.606 78.6956 180.446 73.8848 180.446 67.9503C180.446 62.0159 175.606 57.2051 169.635 57.2051C163.664 57.2051 158.824 62.0159 158.824 67.9503C158.824 73.8848 163.664 78.6956 169.635 78.6956Z" fill="white"/>
<path d="M169.636 75.2333C170.877 75.2333 171.884 74.233 171.884 72.999C171.884 71.765 170.877 70.7646 169.636 70.7646C168.394 70.7646 167.388 71.765 167.388 72.999C167.388 74.233 168.394 75.2333 169.636 75.2333Z" fill="#33312D"/>
<path d="M171.248 75.2334H168.013C167.662 75.2334 167.378 74.9519 167.378 74.6023V72.999H171.874V74.6108C171.883 74.9519 171.6 75.2334 171.248 75.2334Z" fill="#33312D"/>
<path d="M165.508 69.4426C165.156 69.4426 164.864 69.1526 164.864 68.803V61.955C164.864 61.6054 165.156 61.3154 165.508 61.3154C165.86 61.3154 166.151 61.6054 166.151 61.955V68.803C166.151 69.1612 165.868 69.4426 165.508 69.4426Z" fill="#33312D"/>
<path d="M173.753 69.4426C173.401 69.4426 173.109 69.1526 173.109 68.803V61.955C173.109 61.6054 173.401 61.3154 173.753 61.3154C174.105 61.3154 174.396 61.6054 174.396 61.955V68.803C174.396 69.1612 174.113 69.4426 173.753 69.4426Z" fill="#33312D"/>
<defs>
<radialGradient id="paint0_radial" cx="0" cy="0" r="1" gradientUnits="userSpaceOnUse" gradientTransform="translate(124.895 149.879) rotate(180) scale(30.3607 30.1766)">
<stop stop-color="#D28D29"/>
<stop offset="1" stop-color="#FFD590"/>
</radialGradient>
<linearGradient id="paint1_linear" x1="90.4465" y1="125.243" x2="90.4465" y2="225.362" gradientUnits="userSpaceOnUse">
<stop stop-color="#FFD590"/>
<stop offset="1" stop-color="#D28D29"/>
</linearGradient>
<linearGradient id="paint2_linear" x1="105.421" y1="43.6323" x2="105.421" y2="79.4413" gradientUnits="userSpaceOnUse">
<stop offset="0.1591" stop-color="#72ACF1"/>
<stop offset="0.9996" stop-color="#2970B8"/>
</linearGradient>
</defs>
</svg>
