<svg width="195" height="180" viewBox="0 0 195 180" fill="none" xmlns="http://www.w3.org/2000/svg">
<path d="M128.318 144.375C144.792 148.126 164.055 155.653 180.284 147.585C195.473 140.033 198.947 123.086 190.486 108.995C186.074 101.645 174.858 108.784 179.261 116.117C184.798 125.333 180.724 134.221 170.741 137.22C164.977 138.951 158.73 137.608 153.008 136.366C145.73 134.778 138.478 133.063 131.217 131.407C122.875 129.507 119.967 142.466 128.318 144.375Z" fill="url(#paint0_linear)"/>
<path d="M66.3353 114.554L79.1325 148.692L65.1182 161.643C62.5148 165.926 67.0538 170.986 71.5928 168.857L94.6682 157.968L86.8158 104.957L66.3353 114.554Z" fill="#BF8B00"/>
<path d="M25.1294 91.06C19.9057 73.4545 15.8654 61.5514 8.76528 45.8214L0 29.1282L15.316 26.7797C17.4122 24.2707 20.1931 22.1165 23.777 20.4438C25.6281 19.5821 30.1756 18.4163 30.1756 18.4163L39.3043 7.67896C39.3043 7.67896 46.0579 16.1945 52.093 25.5294C62.5319 41.6988 71.6014 55.9758 81.9896 65.0995C97.4662 78.6838 112.267 88.0272 121.218 98.8068C131.581 111.284 135.739 134.575 123.847 145.304C117.583 150.956 105.707 156.793 94.3557 161.938C81.6599 167.7 73.8414 170.682 65.355 174.188C57.4265 177.465 37.1151 168.097 32.2718 141.08C30.1417 129.118 31.8492 113.692 25.1294 91.06Z" fill="url(#paint1_linear)"/>
<path d="M41.5554 33.5427C42.952 32.7988 43.3936 30.9007 42.5417 29.3032C41.6899 27.7056 39.8672 27.0135 38.4706 27.7574C37.074 28.5012 36.6324 30.3993 37.4843 31.9969C38.3361 33.5945 40.1588 34.2865 41.5554 33.5427Z" fill="#33312D"/>
<path d="M22.781 43.5385C24.1776 42.7947 24.6192 40.8966 23.7673 39.299C22.9155 37.7014 21.0928 37.0094 19.6962 37.7532C18.2996 38.4971 17.858 40.3952 18.7099 41.9928C19.5617 43.5903 21.3844 44.2824 22.781 43.5385Z" fill="#33312D"/>
<path d="M35.0105 35.4223C34.199 34.0452 32.2465 34.8309 30.556 35.8278C28.8655 36.8246 27.1665 37.8722 27.9779 39.2492C28.7894 40.6262 31.7985 41.8089 33.489 40.812C35.188 39.8152 35.8219 36.7993 35.0105 35.4223Z" fill="#33312D"/>
<path d="M36.2098 46.8776C35.8717 46.8776 35.5505 46.7002 35.3815 46.3792L32.6597 41.2513C32.4146 40.7951 32.5921 40.2291 33.0486 39.9841C33.505 39.7392 34.0713 39.9166 34.3164 40.3727L37.0382 45.5006C37.2833 45.9568 37.1058 46.5228 36.6493 46.7678C36.5141 46.8439 36.362 46.8776 36.2098 46.8776Z" fill="#33312D"/>
<path d="M107.566 158.999C111.007 157.748 112.638 154.597 111.548 150.458L103.374 107.432C102.123 103.994 90.9404 103.065 87.5002 104.315L88.1595 105.743C84.7193 106.993 78.6166 111.986 79.8676 115.433L99.021 155.02C100.872 159.362 104.118 160.249 107.566 158.999Z" fill="#FFD590"/>
<path d="M92.97 165.503C96.0382 163.501 97.2385 161.068 94.9056 156.287L77.1553 116.243C75.152 113.177 64.0539 114.816 60.9856 116.818L61.9492 118.06C58.8809 120.062 54.0799 126.313 56.0831 129.38L83.7483 163.569C85.7515 166.635 89.9017 167.505 92.97 165.503Z" fill="#FFD590"/>
<path d="M77.4419 3.49744C78.1181 1.4108 80.0621 0 82.2598 0H89.8248H91.0927H98.6577C100.855 0 102.799 1.4108 103.484 3.49744L122.697 62.5231L119.789 72.1791L128.985 81.8351L138.216 110.195L133.617 121.338L144.504 129.507L154.411 159.928L90.4672 163.856L85.6493 162.69L26.5322 159.928L36.4386 129.507L46.2182 120.755L42.7273 110.195L51.9575 81.8351L62.7683 72.1791L58.2461 62.5231L77.4419 3.49744Z" fill="url(#paint2_linear)"/>
<path d="M51.9409 81.8349H128.986L122.697 62.5229H58.2296L51.9409 81.8349Z" fill="url(#paint3_linear)"/>
<path d="M36.4219 129.507H144.496L138.216 110.195H42.7106L36.4219 129.507Z" fill="url(#paint4_linear)"/>
<path d="M175.847 180H5.07152C2.27373 180 0 177.727 0 174.931V165.005C0 162.209 2.27373 159.936 5.07152 159.936H175.847C178.644 159.936 180.918 162.209 180.918 165.005V174.931C180.918 177.727 178.653 180 175.847 180Z" fill="#F57F20"/>
<defs>
<linearGradient id="paint0_linear" x1="189.489" y1="125.44" x2="132.126" y2="139.722" gradientUnits="userSpaceOnUse">
<stop stop-color="#FFD590"/>
<stop offset="1" stop-color="#D28D29"/>
</linearGradient>
<linearGradient id="paint1_linear" x1="79.0259" y1="126.046" x2="121.063" y2="215.88" gradientUnits="userSpaceOnUse">
<stop stop-color="#FFD590"/>
<stop offset="1" stop-color="#D28D29"/>
</linearGradient>
<linearGradient id="paint2_linear" x1="30.5665" y1="81.9306" x2="182.638" y2="81.9306" gradientUnits="userSpaceOnUse">
<stop stop-color="#F57F20"/>
<stop offset="0.2666" stop-color="#F27D20"/>
<stop offset="0.4995" stop-color="#E77721"/>
<stop offset="0.7199" stop-color="#D56E23"/>
<stop offset="0.9314" stop-color="#BC6026"/>
<stop offset="1" stop-color="#B25B27"/>
</linearGradient>
<linearGradient id="paint3_linear" x1="54.3774" y1="72.1828" x2="145.994" y2="72.1828" gradientUnits="userSpaceOnUse">
<stop stop-color="white"/>
<stop offset="1" stop-color="#E1DFDD"/>
</linearGradient>
<linearGradient id="paint4_linear" x1="39.843" y1="119.853" x2="168.362" y2="119.853" gradientUnits="userSpaceOnUse">
<stop stop-color="white"/>
<stop offset="1" stop-color="#E1DFDD"/>
</linearGradient>
</defs>
</svg>