<svg width="260" height="260" viewBox="0 0 260 260" fill="none" xmlns="http://www.w3.org/2000/svg">
<path d="M53.2 58.9C52 58.6 51.3 57.4 51.6 56.3L53.6 47.8C53.9 46.6 55.1 45.9 56.2 46.2C57.4 46.5 58.1 47.7 57.8 48.8L55.8 57.3C55.5 58.4 54.4 59.1 53.2 58.9Z" fill="#F7B548"/>
<path d="M79 65C77.8 64.7 77.1 63.5 77.4 62.4L79.4 53.9C79.7 52.7 80.9 52 82 52.3C83.2 52.6 83.9 53.8 83.6 54.9L81.6 63.4C81.4 64.5 80.2 65.2 79 65Z" fill="#F7B548"/>
<path d="M78 120.9L29 109.3C25.5 108.5 23.3 104.9 24.1 101.4L35.7 52.4C36.5 48.9 40.1 46.7 43.6 47.5L92.6 59.1C96.1 59.9 98.3 63.5 97.5 67L85.9 116C85.1 119.6 81.6 121.7 78 120.9Z" fill="#FFE5B9"/>
<path d="M96 73.3L34.3 58.8L35.8 52.5C36.6 49 40.2 46.8 43.7 47.6L92.7 59.2C96.2 60 98.4 63.6 97.6 67.1L96 73.3Z" fill="#F7B548"/>
<path d="M53.2 58.9C52 58.6 51.3 57.4 51.6 56.3L53.1 49.9L57.4 50.9L55.9 57.3C55.5 58.4 54.4 59.1 53.2 58.9Z" fill="#FFD590"/>
<path d="M79 65C77.8 64.7 77.1 63.5 77.4 62.4L78.9 56L83.2 57L81.7 63.4C81.4 64.5 80.2 65.2 79 65Z" fill="#FFD590"/>
<path d="M228.9 105.2L215.1 123.7C214.2 124.9 212.6 125.4 211.2 124.8L189.7 116.6C178.3 112.3 169.6 102.8 166.2 91.1L158.4 64.3C158.1 63.4 158.7 62.4 159.6 62.2C164.8 60.9 180.3 55.9 189.2 42C203.6 48.7 219.9 44.6 225 43.1C225.9 42.8 226.9 43.3 227.1 44.3L234.9 71.1C238.5 82.8 236.2 95.4 228.9 105.2Z" fill="url(#paint0_linear_556_326)"/>
<path d="M67.4 151L19.1 178.9C19.1 178.9 25.4 216 51.6 242.8C74.8 229.3 102.5 212.2 102.5 212.2C102.5 212.2 79.5 196.3 67.4 151Z" fill="#C8C6C4"/>
<path d="M90.5 148.6L35.5 180.6C35.5 180.6 44.3 227 75.1 251.1C101.5 235.6 130.8 218.3 130.8 218.3C130.8 218.3 104.5 200.2 90.5 148.6Z" fill="url(#paint1_radial_556_326)"/>
<path d="M130 188.7C162.309 188.7 188.5 162.509 188.5 130.2C188.5 97.8914 162.309 71.7 130 71.7C97.6913 71.7 71.5 97.8914 71.5 130.2C71.5 162.509 97.6913 188.7 130 188.7Z" fill="#C3F2F4"/>
<path d="M130 188.7C162.309 188.7 188.5 162.509 188.5 130.2C188.5 97.8914 162.309 71.7 130 71.7C97.6913 71.7 71.5 97.8914 71.5 130.2C71.5 162.509 97.6913 188.7 130 188.7Z" fill="#80D8FF"/>
<path fill-rule="evenodd" clip-rule="evenodd" d="M167.494 175.407C157.341 183.893 144.267 189 130 189C116.041 189 103.224 184.111 93.1675 175.952C97.2916 172.439 101.648 169.527 106.2 167.3H106.3C113.1 163.4 121.5 161.2 130.9 161.2C141.3 161.2 150.4 164 157.6 168.6C161.022 170.511 164.326 172.798 167.494 175.407Z" fill="#0086F0"/>
<path d="M130 151.6C149.606 151.6 165.5 135.706 165.5 116.1C165.5 96.4939 149.606 80.6 130 80.6C110.394 80.6 94.5 96.4939 94.5 116.1C94.5 135.706 110.394 151.6 130 151.6Z" fill="#0E6EE0"/>
<path d="M99.6 158.1C96.8 158.1 94.6 155.8 94.6 153.1V113.9H104.7V153.1C104.7 155.8 102.4 158.1 99.6 158.1Z" fill="#0E6EE0"/>
<path d="M109.7 158.1C106.9 158.1 104.7 155.8 104.7 153.1V123.4H114.8V153.1C114.7 155.8 112.5 158.1 109.7 158.1Z" fill="#0E6EE0"/>
<path d="M119.7 158.1C116.9 158.1 114.7 155.8 114.7 153.1V123.4H124.8V153.1C124.8 155.8 122.5 158.1 119.7 158.1Z" fill="#0E6EE0"/>
<path d="M141.6 158.9C141.6 153 141.7 140.6 141.7 140.6H120.7C120.7 140.6 120.7 152.9 120.7 158.6C120.7 164.3 115 166.7 115 166.7C115 166.7 121.4 172.8 131.1 172.8C140.8 172.8 148.5 166.9 148.5 166.9C148.5 166.9 141.6 164.8 141.6 158.9Z" fill="url(#paint2_radial_556_326)"/>
<path d="M153.7 120.8C153.7 120.7 153.7 120.6 153.7 120.5C153.7 102.9 143.2 90.3 130.3 90.3C117.4 90.3 106.9 102.9 106.9 120.5C106.9 120.6 106.9 120.7 106.9 120.8C103.8 121.4 101.4 124.1 101.4 127.4V127.7C101.4 131.4 104.4 134.5 108.2 134.5H109.3C113.1 145.1 121.1 152.3 130.3 152.3C139.5 152.3 147.5 145 151.3 134.5H152.4C156.1 134.5 159.2 131.5 159.2 127.7V127.4C159.2 124.2 156.8 121.4 153.7 120.8Z" fill="#45B4FF"/>
<path d="M114.5 90.2C114.5 90.2 114.7 105.2 130.6 107.1C151.3 109.6 153.7 120.7 153.7 120.7C153.7 120.7 164.5 103.1 147.9 89.2C134 77.5 114.5 90.2 114.5 90.2Z" fill="#0E6EE0"/>
<path d="M104.8 42.4C111.262 42.4 116.5 37.1617 116.5 30.7C116.5 24.2383 111.262 19 104.8 19C98.3382 19 93.1 24.2383 93.1 30.7C93.1 37.1617 98.3382 42.4 104.8 42.4Z" fill="#E1DFDD"/>
<path d="M189.9 211.7C194.705 211.7 198.6 207.805 198.6 203C198.6 198.195 194.705 194.3 189.9 194.3C185.095 194.3 181.2 198.195 181.2 203C181.2 207.805 185.095 211.7 189.9 211.7Z" fill="#E1DFDD"/>
<path d="M198.6 203.1C203.405 203.1 207.3 199.205 207.3 194.4C207.3 189.595 203.405 185.7 198.6 185.7C193.795 185.7 189.9 189.595 189.9 194.4C189.9 199.205 193.795 203.1 198.6 203.1Z" fill="#E1DFDD"/>
<path d="M189.9 194.4C189.9 199.2 193.8 203.1 198.6 203.1C198.6 198.2 194.7 194.4 189.9 194.4Z" fill="#C8C6C4"/>
<defs>
<linearGradient id="paint0_linear_556_326" x1="166.913" y1="93.513" x2="235.744" y2="73.4516" gradientUnits="userSpaceOnUse">
<stop stop-color="#28C2D1"/>
<stop offset="0.00412217" stop-color="#28C2D1"/>
<stop offset="1" stop-color="#7BDDEF"/>
</linearGradient>
<radialGradient id="paint1_radial_556_326" cx="0" cy="0" r="1" gradientUnits="userSpaceOnUse" gradientTransform="translate(107.813 166.214) scale(49.4901)">
<stop stop-color="#B3AFAB"/>
<stop offset="1" stop-color="#E1DFDD"/>
</radialGradient>
<radialGradient id="paint2_radial_556_326" cx="0" cy="0" r="1" gradientUnits="userSpaceOnUse" gradientTransform="translate(131.423 143.04) scale(29.4638 25.2064)">
<stop offset="0.000218118" stop-color="#0086F0"/>
<stop offset="1" stop-color="#45B4FF"/>
</radialGradient>
</defs>
</svg>
