<svg width="145" height="117" viewBox="0 0 145 117" fill="none" xmlns="http://www.w3.org/2000/svg">
<path d="M65.625 58.5C47.625 62.2 29.625 65.9 11.725 69.5C10.225 69.8 8.825 69 8.225 67.6C3.725 55.5 0.825 31.2 0.625 13C0.625 11.5 1.625 10.2 3.125 9.99997C20.025 6.69997 37.025 3.39997 54.025 0.0999736C55.825 -0.300026 57.525 1.09997 57.625 2.89997C58.725 23.2 59.925 38.2 67.725 54.2C68.625 56 67.625 58.1 65.625 58.5Z" fill="#7BDDEF"/>
<path d="M122.025 92.1004C99.0249 101 70.4249 107.8 47.2249 115.9C45.9249 116.4 44.4249 115.9 43.6249 114.6C30.5249 93.0004 25.0249 47.3004 23.9249 36.0004C23.7249 34.5004 24.7249 33.2004 26.1249 32.8004L100.225 12.1004C102.025 11.6004 103.825 12.8004 104.025 14.6004C105.425 26.3004 110.825 64.6004 123.625 87.8004C124.425 89.4004 123.725 91.4004 122.025 92.1004Z" fill="url(#paint0_radial_5317_185608)"/>
<path d="M84.4251 106.7L80.8251 112C80.3251 112.8 80.5251 113.8 81.2251 114.4C82.0251 114.9 83.0251 114.7 83.6251 114L87.2251 108.7L84.4251 106.7Z" fill="#3E8EED"/>
<path d="M85.9249 94.2002L81.0249 109.8L85.8249 113L98.4249 102.7L85.9249 94.2002Z" fill="#FFE5B9"/>
<path d="M142.625 40.5999L101.625 102.2C100.925 103.2 99.625 103.4 98.625 102.8L85.625 94.1999C84.625 93.4999 84.425 92.1999 85.025 91.1999L126.025 29.5999C129.025 24.9999 135.225 23.7999 139.725 26.7999C144.425 29.8999 145.625 35.9999 142.625 40.5999Z" fill="#FFD590"/>
<path d="M91.5696 80.3993L86.4165 88.1416L103.982 99.8331L109.135 92.0909L91.5696 80.3993Z" fill="#F7B548"/>
<path d="M95.5146 74.4429L93.6306 77.2734L111.196 88.9649L113.08 86.1344L95.5146 74.4429Z" fill="#F7B548"/>
<path d="M94.1249 49.4998L48.8249 61.8998C46.6249 62.4998 44.3249 61.1998 43.7249 58.9998C43.1249 56.7998 44.4249 54.4998 46.6249 53.8998L91.9249 41.4998C94.1249 40.8998 96.4249 42.1998 97.0249 44.3998C97.6249 46.5998 96.3249 48.8998 94.1249 49.4998Z" fill="white"/>
<path d="M79.1251 73.4998L54.0251 80.4998C51.8251 81.0998 49.5251 79.7998 48.9251 77.5998C48.3251 75.3998 49.6251 73.0998 51.8251 72.4998L76.9251 65.4998C79.1251 64.8998 81.4251 66.1998 82.0251 68.3998C82.6251 70.5998 81.3251 72.8998 79.1251 73.4998Z" fill="white"/>
<defs>
<radialGradient id="paint0_radial_5317_185608" cx="0" cy="0" r="1" gradientUnits="userSpaceOnUse" gradientTransform="translate(104.528 114.954) scale(50.9968)">
<stop offset="0.00065331" stop-color="#3E8EED"/>
<stop offset="1" stop-color="#72ACF1"/>
</radialGradient>
</defs>
</svg> 
