<svg width="160" height="160" viewBox="0 0 160 160" fill="none" xmlns="http://www.w3.org/2000/svg">
<path d="M84.1163 156.023C122.8 156.023 154.205 124.859 154.205 86.4725C154.205 48.0855 122.8 16.9219 84.1163 16.9219C45.4322 17.0251 14.0273 48.0855 14.0273 86.4725C14.0273 124.859 45.4322 156.023 84.1163 156.023Z" fill="#EDECEB"/>
<path d="M82.9723 127.336C74.8611 127.336 67.4779 128.884 61.6545 131.67C57.9108 133.218 49.9037 137.965 45.2241 144.259C56.351 151.689 69.7657 156.023 84.2202 156.023C97.0109 156.023 108.97 152.618 119.265 146.736C114.689 135.488 100.131 127.336 82.9723 127.336Z" fill="#31C0CF"/>
<path d="M115.417 85.8538C114.065 84.306 113.233 82.3454 112.921 80.3847C110.426 64.3902 98.8828 56.2381 83.9083 56.1349C67.062 55.9285 52.9194 66.1444 52.8154 85.8538C52.8154 89.8783 49.3837 90.7038 49.5917 94.6251C49.9037 99.475 53.1274 98.6495 53.9593 103.809C54.4792 107.111 51.3595 107.627 51.2556 113.303C51.0476 125.17 65.7101 124.86 84.3242 124.447C100.651 124.138 112.089 124.757 116.457 119.391C123.632 110.723 114.273 107.008 116.977 99.3718C119.369 92.4581 117.289 88.0209 115.417 85.8538Z" fill="#3A312E"/>
<path d="M84.0122 130.226C101.067 130.122 114.897 113.509 114.793 93.1801C114.689 72.8515 100.651 56.4442 83.5963 56.5474C66.438 56.6505 52.6074 73.1611 52.7114 93.4896C52.9194 113.921 66.854 130.329 84.0122 130.226Z" fill="#3A312E"/>
<path d="M93.9952 98.9587V95.6566C93.9952 93.2832 95.8671 91.4258 98.2588 91.4258H101.69C104.914 91.4258 107.618 94.0056 107.618 97.3077C107.618 100.507 105.018 103.19 101.69 103.19H98.2588C95.971 103.19 93.9952 101.332 93.9952 98.9587Z" fill="#BF8F68"/>
<path d="M72.9894 98.9587V95.6566C72.9894 93.2832 71.1176 91.4258 68.7259 91.4258H65.2942C62.0705 91.4258 59.3668 94.0056 59.3668 97.3077C59.3668 100.507 61.9666 103.19 65.2942 103.19H68.7259C71.1176 103.19 72.9894 101.332 72.9894 98.9587Z" fill="#BF8F68"/>
<path d="M70.2856 128.678C66.542 130.019 76.005 136.107 83.1803 136.107C90.2516 136.107 99.4027 130.638 94.8272 128.471C91.0835 126.717 90.7716 125.479 90.6676 122.073V106.904H75.2771L75.3811 122.383C75.6931 126.614 73.5093 127.542 70.2856 128.678Z" fill="#BF8F68"/>
<path d="M75.3811 132.083H90.7716V108.865H75.3811V132.083Z" fill="url(#paint0_radial_13155_196)"/>
<path d="M83.8043 64.3896C94.8272 64.3896 103.77 75.1215 103.77 89.981C103.77 104.84 94.8272 116.914 83.8043 116.914C72.7814 116.914 63.8383 104.84 63.8383 89.981C63.7343 75.1215 72.7814 64.3896 83.8043 64.3896Z" fill="#BF8F67"/>
<path d="M68.5177 71.9229L67.7898 104.634L82.8683 104.531L83.0763 97.2046C83.0763 95.3472 80.4765 93.7993 79.9566 93.077C78.9167 91.8387 79.3326 89.6717 80.2685 88.8461C81.9324 87.2983 84.0122 84.5121 84.4281 80.3845L84.9481 72.4388L68.5177 71.9229Z" fill="url(#paint1_radial_13155_196)"/>
<path d="M101.898 65.5253C112.817 75.8443 103.666 83.5836 103.666 83.5836C103.666 83.5836 104.082 76.9794 87.8599 72.3358C76.629 69.1369 74.7572 62.2232 74.7572 62.2232C74.7572 62.2232 90.6676 54.9998 101.898 65.5253Z" fill="#3A312E"/>
<path d="M64.3582 110.412C66.438 110.412 68.1019 108.555 68.1019 106.388C68.1019 104.221 66.334 102.467 64.2542 102.467C62.1745 102.467 60.5106 104.324 60.5106 106.491C60.5106 108.658 62.2784 110.412 64.3582 110.412Z" fill="#F8C954"/>
<path d="M103.354 110.412C105.434 110.412 107.098 108.555 107.098 106.388C107.098 104.221 105.33 102.467 103.25 102.467C101.17 102.467 99.5066 104.324 99.5066 106.491C99.5066 108.658 101.274 110.412 103.354 110.412Z" fill="#F8C954"/>
<path d="M98.4668 129.813C93.9952 127.749 88.1718 127.13 82.9724 127.13C73.3013 127.027 73.1973 127.749 68.4138 129.194C72.0535 132.805 76.629 134.353 83.3883 134.663C88.4838 134.869 94.4112 133.734 98.4668 129.813Z" fill="#BF8F67"/>
<path d="M74.8612 88.1231C75.9011 88.1231 76.733 86.6784 76.629 85.0274C76.629 83.2731 75.7971 81.9316 74.7572 81.9316C73.7173 81.9316 72.8854 83.3763 72.9894 85.0274C72.9894 86.7816 73.8213 88.1231 74.8612 88.1231Z" fill="#3A312E"/>
<path d="M93.4753 85.1309C93.4753 83.3766 92.6434 82.0352 91.7075 82.0352C90.6676 82.0352 89.8357 83.3766 89.8357 85.1309C89.8357 86.8851 90.6676 88.2266 91.6035 88.2266C92.6434 88.2266 93.4753 86.7819 93.4753 85.1309Z" fill="#3A312E"/>
<path d="M104.29 75.1219L103.562 80.6942C99.1948 78.8368 92.1235 77.7017 83.9083 77.7017L82.0365 70.4783L79.8527 77.4953C72.9894 77.8049 67.062 79.1464 63.4224 80.6942H59.8867V75.8443C59.8867 68.3113 72.9894 57.9923 80.4766 57.7859L85.1562 57.3731C95.7631 57.0635 104.29 64.906 104.29 75.1219Z" fill="#3A312E"/>
<path d="M114.585 125.17C114.689 124.345 114.377 123.519 113.857 122.9L109.698 117.431C109.074 116.605 101.379 112.065 101.379 112.065C100.859 111.962 100.443 112.168 100.755 112.89C101.691 114.954 105.954 118.36 105.954 118.36L109.386 122.487L104.914 120.011C104.186 119.598 103.25 119.701 102.522 120.217C100.755 121.662 99.4028 123.519 98.5708 125.583L98.0509 126.924C97.7389 127.647 98.5708 128.369 99.1948 127.956L101.795 127.131L103.978 129.195C103.978 129.195 102.106 132.497 102.626 136.521C103.146 140.546 105.642 145.396 105.642 145.396L112.401 144.673L114.585 125.17Z" fill="#BF8F68"/>
<path d="M112.193 141.577C112.193 141.577 106.058 143.435 105.226 143.847C105.85 146.427 106.058 149.11 106.578 152.309C109.802 151.277 112.921 149.936 115.937 148.388C113.545 144.363 112.193 141.577 112.193 141.577Z" fill="#BF8F68"/>
<path d="M25.0501 24.0421C9.97165 25.8995 -0.843262 37.5601 0.612592 50.1493C1.13254 54.3801 3.00435 58.1982 5.81207 61.2939C10.6996 66.6598 18.3948 69.962 27.0259 69.8588C28.1698 69.8588 29.4177 69.7556 30.5616 69.6524C33.6813 69.3428 36.593 68.5173 39.2967 67.3822C40.3366 67.8981 41.5845 68.3109 43.0403 68.5173C43.7683 68.7237 44.6002 68.8269 45.4321 68.93C50.8395 69.5492 50.7356 68.2077 48.7598 66.0407C48.0318 65.2152 47.1999 64.3897 46.264 63.3577C52.5034 58.4046 56.039 51.1812 55.1031 43.6483C53.4393 30.9558 40.0246 22.1846 25.0501 24.0421Z" fill="#A9C9EA"/>
<path d="M34.4092 45.6085C34.2012 43.9574 35.4491 42.4095 37.1129 42.2032C38.7767 41.9968 40.3366 43.2351 40.5445 44.8861C40.7525 46.5372 39.5046 48.085 37.8408 48.2914C36.073 48.3946 34.6171 47.2595 34.4092 45.6085Z" fill="#72ACF1"/>
<path d="M24.3222 46.8467C24.1143 45.1957 25.3621 43.6478 27.026 43.4414C28.6898 43.2351 30.2496 44.4734 30.4576 46.1244C30.6656 47.7755 29.4177 49.3233 27.7539 49.5297C25.9861 49.6329 24.5302 48.3946 24.3222 46.8467Z" fill="#72ACF1"/>
<path d="M14.2352 47.9815C14.0272 46.3305 15.2751 44.7826 16.9389 44.5762C18.6028 44.3698 20.1626 45.6081 20.3706 47.2592C20.5786 48.9102 19.3307 50.4581 17.6669 50.6645C16.003 50.7677 14.4432 49.6326 14.2352 47.9815Z" fill="#72ACF1"/>
<path d="M106.162 12.3818C95.0351 9.5957 84.1162 6.80955 73.3013 4.0234C72.5734 3.81701 71.7415 4.33297 71.4295 5.0553C66.542 16.9222 63.1103 28.7892 61.1345 40.4497C61.0305 41.1721 61.5505 41.9976 62.3824 42.1008C74.2372 44.7837 86.3 47.3635 98.4668 50.0465C99.2987 50.2529 99.9226 49.7369 100.027 49.0146C100.963 37.5604 103.25 25.7966 107.098 13.9297C107.306 13.3106 106.89 12.485 106.162 12.3818Z" fill="#C8C6C4"/>
<path d="M73.6132 7.32617C69.4537 18.058 66.334 28.7899 64.4622 39.3153C75.2771 41.7919 86.196 44.2685 97.2189 46.7451C98.2588 36.3228 100.443 25.7973 103.874 14.9623C93.6832 12.4857 83.5962 9.90594 73.6132 7.32617Z" fill="#C6E8ED"/>
<path d="M84.4282 13.7236C82.5564 13.5172 80.5806 15.0651 80.3726 17.0257C80.0607 18.9863 81.4125 20.7405 83.3883 20.8437C85.3641 20.9469 87.028 19.5023 87.4439 17.5416C87.6519 15.4778 86.404 13.8268 84.4282 13.7236Z" fill="white"/>
<path d="M95.867 15.5811C90.3555 21.8757 85.2601 28.0671 80.4765 34.2586C79.1247 28.3767 78.2928 22.4948 77.7728 16.5098C73.8212 21.0502 69.9736 25.5906 66.438 30.0278C65.71 33.1235 64.9821 36.116 64.4622 39.2117C75.2771 41.7915 86.196 44.2681 97.2189 46.7447C97.6348 42.7202 98.1548 38.6958 98.9867 34.6713C97.4268 28.3767 96.3869 21.9789 95.867 15.5811Z" fill="#85D3E7"/>
<path d="M87.756 99.6813C88.0679 99.475 88.5879 99.7845 88.5879 99.9909V100.3C88.4839 100.92 86.5081 103.293 84.1163 103.499C82.0365 103.706 79.6448 102.983 79.0209 102.158C78.9169 102.055 78.6049 101.126 79.3328 101.229C80.1647 101.332 82.1405 101.539 83.5964 101.332C85.5722 101.023 87.34 99.8877 87.756 99.6813Z" fill="#9B643D"/>
<path d="M156.597 59.85L123.424 70.3754C121.241 71.0978 118.849 69.8595 118.225 67.6925L111.258 46.0224C110.53 43.8554 111.778 41.482 113.961 40.8629L147.134 30.3374C149.318 29.6151 151.71 30.8534 152.333 33.0204L159.301 54.6904C160.029 56.8574 158.885 59.2308 156.597 59.85Z" fill="#FFD590"/>
<path d="M129.56 46.4343L132.783 56.547C133.095 57.4757 134.343 57.6821 134.967 56.8566L140.063 49.6332C140.479 49.0141 140.271 48.0854 139.439 47.7758L131.12 44.8864C130.08 44.6801 129.248 45.5056 129.56 46.4343Z" fill="#F7B548"/>
<defs>
<radialGradient id="paint0_radial_13155_196" cx="0" cy="0" r="1" gradientUnits="userSpaceOnUse" gradientTransform="translate(84.475 114.062) scale(17.2448 16.7982)">
<stop stop-color="#9B643D"/>
<stop offset="0.8919" stop-color="#BA8A63" stop-opacity="0.1079"/>
<stop offset="0.9997" stop-color="#BF8F67" stop-opacity="0"/>
</radialGradient>
<radialGradient id="paint1_radial_13155_196" cx="0" cy="0" r="1" gradientUnits="userSpaceOnUse" gradientTransform="translate(81.7493 91.4426) rotate(175.715) scale(9.71612 10.1653)">
<stop offset="0.000320513" stop-color="#9B643D"/>
<stop offset="0.8922" stop-color="#BA8A63" stop-opacity="0.1079"/>
<stop offset="1" stop-color="#BF8F67" stop-opacity="0"/>
</radialGradient>
</defs>
</svg>
