<svg width="128" height="144" viewBox="0 0 128 144" fill="none" xmlns="http://www.w3.org/2000/svg">
<path d="M123.691 29.7897L67.5115 0.869751C66.4101 0.298207 65.1874 -0.00012207 63.9466 -0.00012207C62.7057 -0.00012207 61.4828 0.298207 60.3814 0.869751L4.23147 29.7897C2.96345 30.4411 1.89847 31.4281 1.15261 32.6429C0.406747 33.8578 0.00862468 35.2541 0.00148561 36.6797C-0.0885144 54.6797 3.73137 118.24 60.8814 142.81C61.859 143.23 62.9123 143.447 63.9766 143.447C65.0409 143.447 66.0939 143.23 67.0716 142.81C124.222 118.24 128.071 54.6397 127.951 36.6797C127.941 35.251 127.539 33.8526 126.787 32.6375C126.036 31.4223 124.965 30.437 123.691 29.7897Z" fill="#2B88D8"/>
<path d="M105.941 41.1997L66.8914 21.0897C65.9804 20.6213 64.971 20.3768 63.9466 20.3768C62.9222 20.3768 61.9125 20.6213 61.0015 21.0897L21.9515 41.1997C20.8971 41.7418 20.0132 42.5648 19.3973 43.5778C18.7814 44.5907 18.4575 45.7542 18.4615 46.9397C18.4615 60.4297 21.7014 104.33 61.3914 121.65C62.1975 122.001 63.0674 122.182 63.9466 122.182C64.8257 122.182 65.6954 122.001 66.5015 121.65C106.191 104.33 109.411 60.4297 109.431 46.9397C109.435 45.7542 109.112 44.5907 108.496 43.5778C107.88 42.5648 106.996 41.7418 105.941 41.1997V41.1997Z" fill="#004578"/>
<path d="M46.8513 72.9802L60.2013 86.3302L81.6513 57.6702" stroke="white" stroke-width="7" stroke-linecap="round" stroke-linejoin="round"/>
</svg>
