<svg width="33" height="33" viewBox="0 0 33 33" fill="none" xmlns="http://www.w3.org/2000/svg">
<circle cx="16.5811" cy="16.9863" r="16" fill="#C7E0F4"/>
<path d="M19.0811 8.98633C19.5863 8.98633 20.0732 9.05143 20.542 9.18164C21.0107 9.31185 21.4482 9.49674 21.8545 9.73633C22.2607 9.97591 22.6305 10.265 22.9639 10.6035C23.3024 10.9368 23.5915 11.3066 23.8311 11.7129C24.0706 12.1191 24.2555 12.5566 24.3857 13.0254C24.516 13.4941 24.5811 13.9811 24.5811 14.4863C24.5811 14.9915 24.516 15.4785 24.3857 15.9473C24.2555 16.416 24.0706 16.8535 23.8311 17.2598C23.5915 17.666 23.3024 18.0384 22.9639 18.377C22.6305 18.7103 22.2607 18.9967 21.8545 19.2363C21.4482 19.4759 21.0107 19.6608 20.542 19.791C20.0732 19.9212 19.5863 19.9863 19.0811 19.9863C18.43 19.9863 17.805 19.877 17.2061 19.6582C16.6123 19.4395 16.0654 19.1243 15.5654 18.7129L9.43262 24.8379C9.33366 24.9368 9.21647 24.9863 9.08105 24.9863C8.94564 24.9863 8.82845 24.9368 8.72949 24.8379C8.63053 24.7389 8.58105 24.6217 8.58105 24.4863C8.58105 24.3509 8.63053 24.2337 8.72949 24.1348L14.8545 18.002C14.443 17.502 14.1279 16.9551 13.9092 16.3613C13.6904 15.7624 13.5811 15.1374 13.5811 14.4863C13.5811 13.9811 13.6462 13.4941 13.7764 13.0254C13.9066 12.5566 14.0915 12.1191 14.3311 11.7129C14.5706 11.3066 14.8571 10.9368 15.1904 10.6035C15.529 10.265 15.9014 9.97591 16.3076 9.73633C16.7139 9.49674 17.1514 9.31185 17.6201 9.18164C18.0889 9.05143 18.5758 8.98633 19.0811 8.98633ZM19.0811 18.9863C19.7008 18.9863 20.2842 18.8691 20.8311 18.6348C21.3779 18.3952 21.8545 18.0723 22.2607 17.666C22.667 17.2598 22.9873 16.7832 23.2217 16.2363C23.4613 15.6895 23.5811 15.1061 23.5811 14.4863C23.5811 13.8665 23.4613 13.2832 23.2217 12.7363C22.9873 12.1895 22.667 11.7129 22.2607 11.3066C21.8545 10.9004 21.3779 10.5801 20.8311 10.3457C20.2842 10.1061 19.7008 9.98633 19.0811 9.98633C18.4613 9.98633 17.8779 10.1061 17.3311 10.3457C16.7842 10.5801 16.3076 10.9004 15.9014 11.3066C15.4951 11.7129 15.1722 12.1895 14.9326 12.7363C14.6982 13.2832 14.5811 13.8665 14.5811 14.4863C14.5811 15.1061 14.6982 15.6895 14.9326 16.2363C15.1722 16.7832 15.4951 17.2598 15.9014 17.666C16.3076 18.0723 16.7842 18.3952 17.3311 18.6348C17.8779 18.8691 18.4613 18.9863 19.0811 18.9863Z" fill="#0078D4"/>
</svg>
