<svg width="180" height="182" viewBox="0 0 180 182" fill="none" xmlns="http://www.w3.org/2000/svg">
<g opacity="0.45">
<path opacity="0.45" d="M88.9622 127.958L12.0744 54.2558" stroke="#C8C6C4" stroke-width="0.6524" stroke-miterlimit="10"/>
<path opacity="0.45" d="M1.71137 52.4568C3.92199 54.6021 14.9752 57.0244 14.9752 57.0244C14.9752 57.0244 11.6589 45.6749 9.37917 43.5295C7.09947 41.3842 3.64579 41.6609 1.50426 44.1523C-0.568188 46.6436 -0.499242 50.3807 1.71137 52.4568Z" fill="#C8C6C4"/>
<path opacity="0.45" d="M20.0193 53.2178C20.0884 56.8856 26.582 68.1659 26.582 68.1659C26.582 68.1659 32.5231 55.9165 32.454 52.3179C32.3849 48.6501 29.4836 45.9512 26.0295 46.1588C22.6445 46.4356 19.9502 49.5499 20.0193 53.2178Z" fill="#C8C6C4"/>
<path opacity="0.45" d="M11.8662 62.6985C15.3203 62.4217 26.5805 68.1659 26.5805 68.1659C26.5805 68.1659 15.5962 75.6397 12.1421 75.8473C8.68806 76.1241 5.85584 73.356 5.71768 69.6882C5.6486 66.1588 8.41213 62.9753 11.8662 62.6985Z" fill="#C8C6C4"/>
<path opacity="0.45" d="M34.3171 65.121C34.3862 69.55 42.3303 83.1833 42.3303 83.1833C42.3303 83.1833 49.5837 68.3738 49.4456 63.9447C49.3765 59.5156 45.8539 56.1937 41.709 56.5397C37.5641 56.8857 34.248 60.6919 34.3171 65.121Z" fill="#C8C6C4"/>
<path opacity="0.45" d="M24.4402 76.6086C28.5851 76.2626 42.2632 83.2523 42.2632 83.2523C42.2632 83.2523 28.9996 92.2489 24.7856 92.5949C20.6407 92.9409 17.1174 89.619 17.0483 85.1899C16.9793 80.7608 20.2953 76.9546 24.4402 76.6086Z" fill="#C8C6C4"/>
</g>
<g opacity="0.45">
<path opacity="0.45" d="M118.046 175.433L167.922 141.315" stroke="#C8C6C4" stroke-width="0.3695" stroke-miterlimit="10"/>
<path opacity="0.45" d="M173.933 141.315C172.483 142.284 166.127 142.63 166.127 142.63C166.127 142.63 169.098 136.609 170.479 135.64C171.93 134.671 173.864 135.156 174.831 136.678C175.798 138.201 175.315 140.346 173.933 141.315Z" fill="#C8C6C4"/>
<path opacity="0.45" d="M163.641 140C163.226 142.007 158.529 147.751 158.529 147.751C158.529 147.751 156.387 140.346 156.733 138.339C157.147 136.332 159.012 135.017 160.878 135.501C162.812 135.986 163.986 137.993 163.641 140Z" fill="#C8C6C4"/>
<path opacity="0.45" d="M167.3 146.09C165.366 145.605 158.527 147.82 158.527 147.82C158.527 147.82 163.915 153.01 165.849 153.425C167.783 153.841 169.579 152.595 169.994 150.588C170.408 148.581 169.165 146.574 167.3 146.09Z" fill="#C8C6C4"/>
<path opacity="0.45" d="M154.452 145.329C153.968 147.82 148.304 154.671 148.304 154.671C148.304 154.671 145.678 145.744 146.162 143.253C146.645 140.761 148.857 139.239 151.205 139.792C153.485 140.484 154.935 142.907 154.452 145.329Z" fill="#C8C6C4"/>
<path opacity="0.45" d="M158.943 152.664C156.663 152.11 148.373 154.74 148.373 154.74C148.373 154.74 154.936 160.969 157.216 161.591C159.495 162.145 161.776 160.622 162.259 158.131C162.674 155.709 161.223 153.217 158.943 152.664Z" fill="#C8C6C4"/>
<path opacity="0.45" d="M149.27 160.415C146.437 159.723 136.352 162.976 136.352 162.976C136.352 162.976 144.365 170.588 147.128 171.28C149.961 171.972 152.655 170.104 153.277 167.128C153.829 164.083 152.033 161.107 149.27 160.415Z" fill="#C8C6C4"/>
<path opacity="0.45" d="M142.846 151.349C142.708 154.187 136.56 162.699 136.56 162.699C136.56 162.699 131.517 152.941 131.724 150.104C131.863 147.266 134.488 145.259 137.596 145.605C140.636 145.882 142.984 148.512 142.846 151.349Z" fill="#C8C6C4"/>
</g>
<path d="M103.606 41.2455C115.167 41.2455 124.538 32.0124 124.538 20.6227C124.538 9.23304 115.167 0 103.606 0C92.0461 0 82.6748 9.23304 82.6748 20.6227C82.6748 32.0124 92.0461 41.2455 103.606 41.2455Z" fill="#FFE5B9"/>
<path d="M46.8226 177.163C56.7704 180.693 67.8233 176.54 71.8992 166.921C74.2479 161.315 73.6262 155.295 70.8629 150.381C76.3204 148.859 81.0872 144.983 83.4359 139.378C87.4427 129.758 82.6072 119.101 73.0049 114.672C70.5179 113.564 68.0997 112.665 65.6818 111.903L71.7615 126.298C72.3833 127.682 71.6923 129.343 70.2416 129.897C68.7909 130.45 67.1331 129.828 66.5804 128.374L58.9119 110.243C54.4907 109.551 50.208 109.412 46.2013 109.758L48.2043 114.395C48.826 115.779 48.135 117.44 46.6843 117.994C45.2336 118.547 43.5758 117.924 43.0231 116.471L40.3982 110.45C36.3914 111.211 32.6609 112.319 29.2068 113.564L32.1084 120.416C32.7301 121.8 32.0391 123.461 30.5884 124.014C29.1377 124.568 27.4799 123.945 26.9272 122.492L24.0257 115.71C14.8378 120.07 9.24258 125.122 9.24258 125.122C9.24258 125.122 9.65707 132.596 13.0421 142.077L16.2884 140.762C17.7391 140.208 19.3976 140.831 19.9502 142.284C20.5029 143.737 19.881 145.329 18.4303 145.883L15.045 147.267C16.5648 150.519 18.4302 153.91 20.7099 157.232L30.6579 153.149C32.1086 152.596 33.7665 153.219 34.3191 154.672C34.9408 156.056 34.2499 157.717 32.7992 158.27L24.2328 161.8C26.8579 164.845 29.967 167.682 33.6283 170.243L49.3788 163.876C50.8295 163.322 52.4873 163.945 53.04 165.399C53.5926 166.852 52.9708 168.443 51.52 168.997L39.569 173.841C41.8487 175.225 44.2666 176.264 46.8226 177.163Z" fill="#F2F2F2"/>
<path d="M171.721 117.024L158.389 118.824C156.8 119.031 155.28 117.924 155.073 116.332C154.866 114.74 155.971 113.287 157.56 113.08L175.107 110.727C177.041 106.575 178.284 102.353 179.044 98.2701L169.442 99.5157C167.853 99.7233 166.333 98.6159 166.126 97.0242C165.919 95.4325 167.024 93.9795 168.613 93.7718L179.804 92.3185C180.149 88.1662 180.011 84.083 179.597 80.4152L175.866 80.8998C174.277 81.1074 172.758 80.0001 172.55 78.4084C172.343 76.8167 173.449 75.3632 175.038 75.1556L178.699 74.6714C176.696 64.36 173.034 57.4396 173.034 57.4396C173.034 57.4396 165.297 55.8478 154.659 56.6783L155.695 64.2908C155.902 65.8825 154.796 67.3356 153.208 67.5432C151.619 67.7508 150.099 66.6438 149.892 65.0521L148.856 57.3703C145.125 57.9932 141.118 58.8927 137.112 60.346L138.01 67.1282C138.217 68.7199 137.112 70.173 135.523 70.3806C133.934 70.5882 132.414 69.4809 132.207 67.8892L131.516 62.6299C127.717 64.4292 123.917 66.782 120.325 69.6886L123.088 89.9656C123.295 91.5573 122.19 93.0104 120.601 93.218C119.012 93.4256 117.492 92.3183 117.285 90.7266L115.074 74.6021C113.278 76.4706 111.621 78.5468 109.963 80.8305C103.676 89.7579 104.989 101.869 113.762 108.443C118.874 112.249 125.161 113.287 130.894 111.834C130.963 117.647 133.658 123.391 138.77 127.197C147.543 133.772 159.701 131.834 166.817 123.46C168.751 121.384 170.34 119.17 171.721 117.024Z" fill="#F2F2F2"/>
<path d="M148.041 44.1936C150.39 34.0286 129.696 20.5482 101.82 14.0842C73.9434 7.62017 49.4412 10.6202 47.0924 20.7852C44.7437 30.9502 65.4379 44.4306 93.3142 50.8946C121.191 57.3586 145.693 54.3585 148.041 44.1936Z" fill="#FFD590"/>
<path d="M145.467 113.841C125.088 77.5778 128.336 57.024 122.947 39.723C114.312 11.8337 79.4254 11.8337 70.5139 40.4843C65.1946 57.5777 68.4414 80.3459 49.4439 116.54C45.4372 124.291 151.063 123.806 145.467 113.841Z" fill="#595A5A"/>
<path d="M151.479 133.979C151.686 158.477 126.954 172.734 97.4565 172.941C68.0277 173.149 44.955 159.239 44.8168 134.74C44.6096 110.242 68.3731 90.2418 97.802 90.0342C127.3 89.8266 151.34 109.481 151.479 133.979Z" fill="#595A5A"/>
<path d="M98.2183 90.3805C104.712 90.3805 110.791 89.204 115.834 87.2663C110.791 85.0518 104.919 83.7372 98.6325 83.7372C92.2079 83.7372 86.1982 85.1211 81.0862 87.4049C86.0601 89.3426 91.9319 90.3805 98.2183 90.3805Z" fill="#BF8F68"/>
<path d="M115.352 85.9513C115.006 85.8821 109.618 85.0518 108.927 84.429C107.753 83.5293 107.269 82.2142 107.407 80.4149L107.614 66.0898H89.2389V80.2074C89.1007 81.8683 88.8245 83.1141 88.341 83.7369C87.8574 84.3598 84.6795 85.8131 81.6399 85.8131C86.1302 92.5951 106.44 94.8786 115.352 85.9513Z" fill="url(#paint0_radial_1401_233)"/>
<path d="M98.2884 75.7787C108.475 75.7787 116.733 64.5934 116.733 50.7959C116.733 36.9983 108.475 25.813 98.2884 25.813C88.1016 25.813 79.8434 36.9983 79.8434 50.7959C79.8434 64.5934 88.1016 75.7787 98.2884 75.7787Z" fill="#BD8E67"/>
<path d="M97.8393 46.4362H85.5422V68.3737H97.8393V46.4362Z" fill="url(#paint1_radial_1401_233)"/>
<path d="M96.4222 62.1453C97.3894 62.6297 97.8733 62.9067 97.8733 62.9759H97.9421C100.636 60.6921 100.775 56.7473 97.8733 52.0414L97.4584 53.7026C96.9749 55.0174 96.1462 56.1247 94.9718 57.1628C94.4191 57.578 94.1429 58.2006 94.0738 58.9618C94.0048 59.7231 94.2121 60.346 94.5575 60.8305C94.903 61.2457 95.5241 61.73 96.4222 62.1453Z" fill="#BD8E67"/>
<path d="M102.985 67.0592C102.433 67.7512 101.811 68.3048 101.051 68.72C100.291 69.1353 99.5313 69.4812 98.6333 69.6888C97.7352 69.8964 96.768 69.8272 95.87 69.6196C94.9719 69.4119 94.1433 68.9276 93.5216 68.3047C93.1762 67.9587 93.1762 67.4053 93.5216 67.1285C93.7289 66.9209 94.0049 66.8514 94.2812 66.8514H94.4195C95.1104 66.9206 95.7322 67.0592 96.2849 67.0592C96.9066 67.0592 97.459 67.0591 98.0807 66.9207C98.7025 66.7822 99.3243 66.644 99.9461 66.4364C100.568 66.2288 101.258 65.952 101.88 65.7444L102.019 65.6751C102.433 65.5367 102.985 65.7441 103.124 66.1593C103.193 66.5054 103.123 66.8516 102.985 67.0592Z" fill="#886345"/>
<path d="M89.6529 54.1868C90.6067 54.1868 91.3799 52.9164 91.3799 51.3493C91.3799 49.7823 90.6067 48.5119 89.6529 48.5119C88.6991 48.5119 87.9258 49.7823 87.9258 51.3493C87.9258 52.9164 88.6991 54.1868 89.6529 54.1868Z" fill="#3A312E"/>
<path d="M106.303 54.2562C107.257 54.2562 108.03 52.9858 108.03 51.4188C108.03 49.8518 107.257 48.5814 106.303 48.5814C105.349 48.5814 104.576 49.8518 104.576 51.4188C104.576 52.9858 105.349 54.2562 106.303 54.2562Z" fill="#3A312E"/>
<path d="M132.483 63.6681C132.483 63.6681 130.411 58.7546 129.444 56.4017C128.96 55.0868 127.164 52.0417 126.335 50.7268C125.575 49.6196 125.022 48.9968 124.677 48.7892C124.124 48.5124 123.503 48.5814 122.743 48.9274C122.397 48.6506 121.983 48.3046 121.5 47.8894C121.154 47.6126 120.809 47.4744 120.463 47.4052C119.772 47.6128 119.565 48.028 119.841 48.7892C119.841 48.7892 123.157 60.7614 122.881 61.7995L128.338 67.9586" fill="#BD8E67"/>
<path d="M169.234 99.308C169.234 99.2388 169.165 99.2386 169.165 99.1694C169.165 99.1002 169.096 99.1001 169.096 99.0309C168.82 98.4773 168.474 97.9238 167.991 97.5086C167.715 97.2318 135.66 66.2283 132.483 63.6678L128.338 67.9582C128.338 67.9582 136.904 79.5846 144.71 90.1036C145.056 90.588 144.641 91.2801 144.019 91.1417C132.206 88.6503 120.186 86.2975 117.492 86.0899C111.689 85.6055 115.074 89.0657 114.245 94.1177C113.416 98.962 115.834 103.599 120.877 105.052C125.436 106.367 147.611 108.374 162.188 109.689C165.987 110.035 169.441 107.335 169.925 103.598C170.201 102.076 169.925 100.554 169.234 99.308Z" fill="#C3C3C3"/>
<path d="M104.644 177.993C117.217 180.623 128.892 179.792 137.597 178.27C136.215 173.841 132.554 163.944 129.445 154.394C127.027 146.92 127.442 130.726 128.27 125.744C129.445 118.27 132.001 111.28 132.001 107.335C132.001 94.3941 117.079 83.9444 98.6342 83.9444C80.1894 83.9444 65.2679 94.3941 65.2679 107.335C65.2679 111.418 66.166 117.508 68.1694 125.328C70.1728 133.148 71.7618 147.266 68.9985 154.325C64.4391 165.952 61.814 172.318 60.3633 176.817C60.3633 177.093 60.363 177.301 60.4321 177.509C72.176 175.986 89.4464 174.81 104.644 177.993Z" fill="#C3C3C3"/>
<path d="M27.4091 99.308C27.4091 99.2388 27.4779 99.2386 27.4779 99.1694C27.4779 99.1002 27.5474 99.1001 27.5474 99.0309C27.8237 98.4773 28.1688 97.9238 28.6524 97.5086C28.9287 97.2318 60.9829 66.2283 64.1607 63.6678L68.3056 67.9582C68.3056 67.9582 59.7393 79.5846 51.9331 90.1036C51.5877 90.588 52.0022 91.2801 52.6239 91.1417C64.4369 88.6503 76.4567 86.2975 79.1509 86.0899C84.9537 85.6055 81.5689 89.0657 82.3978 94.1177C83.2268 98.962 80.8092 103.599 75.7663 105.052C71.2069 106.367 49.0318 108.374 34.4555 109.689C30.656 110.035 27.2018 107.335 26.7183 103.598C26.511 102.076 26.7873 100.554 27.4091 99.308Z" fill="#C3C3C3"/>
<path d="M115.767 90.3806C116.458 89.4117 117.563 87.2666 118.047 86.1594C111.968 85.2597 105.543 84.0138 98.0821 83.8062C90.8976 84.0138 84.1274 85.4673 78.8081 86.1594C79.0844 87.2666 79.8448 89.2734 80.3975 90.1038C82.1245 92.526 84.2661 93.7718 86.6148 93.7718H110.103C112.175 93.7718 114.04 92.6643 115.767 90.3806Z" fill="#BD8E67"/>
<path d="M80.1167 57.993C80.1167 57.993 75.9717 52.7334 72.034 51.6261L69.409 60.6227L78.1131 62.3528" fill="#BD8E67"/>
<path d="M116.594 57.1624C116.594 57.1624 120.739 51.903 124.677 50.7958L127.302 59.7923L118.598 61.5224" fill="#BD8E67"/>
<path d="M88.8926 22.8376C88.8926 22.8376 90.6195 31.4879 100.498 35.3633C114.798 41.0381 114.453 49.3427 114.453 49.3427C114.453 49.3427 122.397 39.5849 112.726 26.7821C102.778 13.5641 88.8926 22.8376 88.8926 22.8376Z" fill="#595A5A"/>
<path d="M64.162 63.6681C64.162 63.6681 66.234 58.7546 67.2011 56.4017C67.6847 55.0868 69.4808 52.0417 70.3098 50.7268C71.0697 49.6196 71.6226 48.9968 71.9681 48.7892C72.5207 48.5124 73.1423 48.5814 73.9022 48.9274C74.2476 48.6506 74.662 48.3046 75.1455 47.8894C75.4909 47.6126 75.8364 47.4744 76.1818 47.4052C76.8726 47.6128 77.0801 48.028 76.8038 48.7892C76.8038 48.7892 73.4876 60.7614 73.7639 61.7995L68.3069 67.9586" fill="#BD8E67"/>
<path opacity="0.35" d="M83.0203 44.429C82.3295 44.429 81.7079 44.4984 81.0862 44.6368L91.5861 54.9481C91.7242 54.3253 91.7938 53.7023 91.7938 53.0795C91.8629 48.3044 87.9251 44.429 83.0203 44.429Z" fill="white"/>
<path d="M119.151 59.9307C118.252 61.1071 115.006 61.9379 114.453 62.2839C113.97 62.6991 113.831 63.0451 113.969 63.3219C114.177 63.668 114.591 63.7372 115.213 63.668C118.39 63.1143 120.947 63.9447 122.536 63.5987C123.917 63.2527 129.029 60.7611 129.927 60.2767" fill="#BD8E67"/>
<path d="M74.7317 60.2075C75.6298 61.384 81.6397 63.0447 82.1924 63.4599C82.676 63.8751 82.8143 64.2212 82.6761 64.498C82.4688 64.844 82.0545 64.9132 81.4328 64.844C78.255 64.2904 75.6986 65.1208 74.1097 64.7747C72.7281 64.4287 67.6159 61.9375 66.7178 61.4531" fill="#BD8E67"/>
<path d="M46.2006 180C46.2006 180 78.4618 172.457 104.575 177.924C130.688 183.391 153.001 173.91 153.001 173.91" stroke="#C0C0C0" stroke-width="3.2" stroke-miterlimit="10" stroke-linecap="round" stroke-linejoin="round"/>
<path d="M95.6628 51.3497C95.9391 57.5089 88.5473 64.1524 82.399 64.4292C76.2507 64.706 71.2768 57.2322 71.0005 51.1422C70.7242 44.983 77.9086 41.0384 83.9877 40.7616C90.136 40.4156 95.3865 45.1905 95.6628 51.3497Z" fill="#3E8EED"/>
<path d="M80.6019 64.5676C86.7445 64.5676 91.7238 59.5791 91.7238 53.4256C91.7238 47.2722 86.7445 42.2837 80.6019 42.2837C74.4593 42.2837 69.4793 47.2722 69.4793 53.4256C69.4793 59.5791 74.4593 64.5676 80.6019 64.5676Z" fill="#72ACF1"/>
<path d="M80.6033 62.0068C85.3343 62.0068 89.1691 58.1648 89.1691 53.4255C89.1691 48.6862 85.3343 44.8442 80.6033 44.8442C75.8724 44.8442 72.0369 48.6862 72.0369 53.4255C72.0369 58.1648 75.8724 62.0068 80.6033 62.0068Z" fill="#3E8EED"/>
<path d="M80.6019 59.7234C84.0738 59.7234 86.8881 56.9038 86.8881 53.4258C86.8881 49.9477 84.0738 47.1281 80.6019 47.1281C77.13 47.1281 74.3151 49.9477 74.3151 53.4258C74.3151 56.9038 77.13 59.7234 80.6019 59.7234Z" fill="#A7CBF6"/>
<path d="M97.7336 51.2114C98.0099 57.3706 105.954 63.3219 112.102 63.045C118.251 62.7682 122.534 54.8792 122.189 48.7892C121.912 42.6301 114.382 39.3773 108.303 39.6541C102.155 39.8618 97.4573 45.0522 97.7336 51.2114Z" fill="#3E8EED"/>
<path d="M112.861 63.1141C119.004 63.1141 123.983 58.1256 123.983 51.9721C123.983 45.8186 119.004 40.8305 112.861 40.8305C106.719 40.8305 101.739 45.8186 101.739 51.9721C101.739 58.1256 106.719 63.1141 112.861 63.1141Z" fill="#72ACF1"/>
<path d="M112.864 60.5538C117.595 60.5538 121.43 56.7116 121.43 51.9723C121.43 47.2329 117.595 43.391 112.864 43.391C108.134 43.391 104.298 47.2329 104.298 51.9723C104.298 56.7116 108.134 60.5538 112.864 60.5538Z" fill="#3E8EED"/>
<path d="M112.863 58.2698C116.335 58.2698 119.149 55.4502 119.149 51.9722C119.149 48.4941 116.335 45.6749 112.863 45.6749C109.391 45.6749 106.576 48.4941 106.576 51.9722C106.576 55.4502 109.391 58.2698 112.863 58.2698Z" fill="#A7CBF6"/>
<path opacity="0.45" d="M118.459 49.135L112.725 58.1316C110.515 58.1316 108.511 56.8856 107.406 55.0863L113.485 45.6055C115.626 45.8131 117.492 47.1973 118.459 49.135Z" fill="white"/>
<path opacity="0.45" d="M86.3349 50.7265L80.6013 59.7231C78.3907 59.7231 76.3872 58.4774 75.2819 56.6781L81.3609 47.197C83.5024 47.4046 85.3678 48.7888 86.3349 50.7265Z" fill="white"/>
<path d="M96.2842 50.7961C98.9549 50.7961 101.12 48.6272 101.12 45.9518C101.12 43.2763 98.9549 41.1075 96.2842 41.1075C93.6135 41.1075 91.4485 43.2763 91.4485 45.9518C91.4485 48.6272 93.6135 50.7961 96.2842 50.7961Z" fill="#72ACF1"/>
<path d="M93.4526 46.8513C93.0381 46.8513 92.7621 46.5744 92.693 46.1592C92.693 45.744 92.9693 45.3979 93.3838 45.3979L99.1175 45.0519C99.5319 45.0519 99.8771 45.3287 99.8771 45.7439C99.8771 46.1591 99.6008 46.5052 99.1863 46.5052L93.4526 46.8513Z" fill="#3E8EED"/>
<defs>
<radialGradient id="paint0_radial_1401_233" cx="0" cy="0" r="1" gradientUnits="userSpaceOnUse" gradientTransform="translate(100.375 59.5088) scale(21.8212 21.4927)">
<stop stop-color="#886345"/>
<stop offset="0.9974" stop-color="#BD8E67"/>
</radialGradient>
<radialGradient id="paint1_radial_1401_233" cx="0" cy="0" r="1" gradientUnits="userSpaceOnUse" gradientTransform="translate(97.1456 59.0443) scale(7.81072 7.62934)">
<stop stop-color="#886345"/>
<stop offset="0.9373" stop-color="#BD8E67"/>
</radialGradient>
</defs>
</svg>
