<svg width="180" height="180" viewBox="0 0 180 180" fill="none" xmlns="http://www.w3.org/2000/svg">
<path fill-rule="evenodd" clip-rule="evenodd" d="M123.439 135.951L39.3287 158.631C37.4022 159.152 35.4357 158.009 34.9139 156.094L0.117944 27.2106C-0.403795 25.2855 0.740018 23.3202 2.65641 22.7988L86.7668 0.118348C88.6932 -0.403043 90.6698 0.740006 91.1815 2.65511L125.977 131.529C126.499 133.454 125.365 135.429 123.439 135.951Z" fill="url(#paint0_radial)"/>
<path fill-rule="evenodd" clip-rule="evenodd" d="M71.0167 66.989L49.9364 72.6741C42.2508 74.7497 34.3344 70.1975 32.2575 62.517L28.0334 46.8853C25.9565 39.2049 30.5117 31.2938 38.1973 29.2182L59.2776 23.5331C66.9632 21.4575 74.8796 26.0097 76.9565 33.6902L81.1806 49.3218C83.2575 57.0124 78.7123 64.9134 71.0167 66.989Z" fill="white"/>
<path fill-rule="evenodd" clip-rule="evenodd" d="M66.6414 52.1491C65.5177 52.4499 64.3538 51.7881 64.0528 50.6651L59.2869 33.0081C58.9859 31.8851 59.6481 30.722 60.7719 30.4212C61.8956 30.1204 63.0595 30.7821 63.3605 31.9051L68.1264 49.5622C68.4274 50.6852 67.7652 51.8383 66.6414 52.1491Z" fill="#B3AFAB"/>
<path fill-rule="evenodd" clip-rule="evenodd" d="M87.5216 128.112L66.4413 133.797C58.7557 135.873 50.8393 131.321 48.7624 123.64L44.5383 108.008C42.4614 100.328 47.0166 92.4168 54.7022 90.3413L75.7824 84.6561C83.4781 82.5806 91.3844 87.1327 93.4614 94.8132L97.6854 110.455C99.7624 118.135 95.2072 126.036 87.5216 128.112Z" fill="white"/>
<path fill-rule="evenodd" clip-rule="evenodd" d="M46.254 57.6437C45.1303 57.9445 43.9664 57.2828 43.6654 56.1598L38.8895 38.5027C38.5885 37.3797 39.2507 36.2166 40.3744 35.9158C41.4982 35.615 42.6621 36.2768 42.9631 37.3998L47.7289 55.0568C48.04 56.1798 47.3778 57.3429 46.254 57.6437Z" fill="#B3AFAB"/>
<path fill-rule="evenodd" clip-rule="evenodd" d="M59.7687 59.0975C60.0697 60.2205 59.4075 61.3836 58.2837 61.6844C57.16 61.9853 55.9961 61.3235 55.6951 60.2005C55.3941 59.0775 56.0563 57.9144 57.1901 57.6136C58.3038 57.3028 59.4576 57.9746 59.7687 59.0975Z" fill="#B3AFAB"/>
<path fill-rule="evenodd" clip-rule="evenodd" d="M62.7489 118.767C61.6251 119.068 60.4613 118.406 60.1603 117.283L55.3944 99.6258C55.0934 98.5028 55.7556 97.3397 56.8793 97.0388C58.0031 96.738 59.1669 97.3998 59.4679 98.5228L64.2338 116.18C64.5449 117.303 63.8827 118.456 62.7489 118.767Z" fill="#B3AFAB"/>
<path fill-rule="evenodd" clip-rule="evenodd" d="M83.1366 113.262C82.0128 113.563 80.849 112.901 80.5479 111.778L75.7821 94.1213C75.4811 92.9983 76.1433 91.8352 77.267 91.5344C78.3908 91.2336 79.5546 91.8954 79.8556 93.0284L84.6215 110.685C84.9326 111.808 84.2704 112.962 83.1366 113.262Z" fill="#B3AFAB"/>
<path fill-rule="evenodd" clip-rule="evenodd" d="M76.2639 120.221C76.5649 121.344 75.9027 122.507 74.7789 122.807C73.6552 123.108 72.4913 122.447 72.1903 121.324C71.8893 120.201 72.5515 119.037 73.6752 118.737C74.809 118.426 75.9629 119.098 76.2639 120.221Z" fill="#B3AFAB"/>
<path fill-rule="evenodd" clip-rule="evenodd" d="M125.147 51.2869L139.615 37.9915C139.886 37.7709 140.287 37.9113 140.358 38.2522L142.063 44.7194C142.124 45.0202 142.455 45.1806 142.726 45.0403L153.421 39.4554C153.893 39.2047 154.334 39.8364 153.933 40.1974L138.722 53.9139C138.451 54.1546 138.03 54.0042 137.97 53.6532L136.846 46.6546C136.796 46.3437 136.455 46.1833 136.184 46.3237L125.669 52.0189C125.177 52.2896 124.736 51.6379 125.147 51.2869Z" fill="#FFD590"/>
<path fill-rule="evenodd" clip-rule="evenodd" d="M115.906 39.9566L117.552 12.4031C117.602 11.9118 118.164 11.6612 118.555 11.9519L126.592 16.8249C126.943 17.0756 127.434 16.9152 127.565 16.5041L132.923 0.431213C133.164 -0.280685 134.217 -0.0701236 134.167 0.681882L132.19 29.3884C132.16 29.8898 131.578 30.1605 131.167 29.8597L123.2 23.8838C122.849 23.6231 122.338 23.7835 122.207 24.2046L117.15 40.2173C116.919 40.9493 115.826 40.7186 115.906 39.9566Z" fill="#FFD590"/>
<path d="M128.056 149.86C126.933 153.771 123.31 162.283 117.341 162.945C112.424 163.486 109.916 161.26 106.424 158.172C102.13 154.352 96.7821 149.599 86.8189 151.896C72.772 155.134 68.6282 168.71 68.3975 175.438C68.3172 177.875 70.2236 179.92 72.6617 180C72.7118 180 72.762 180 72.8122 180C75.1801 180 77.1466 178.115 77.2269 175.729C77.2269 175.599 77.7888 163.035 88.7955 160.498C94.3038 159.235 96.7821 161.431 100.545 164.77C104.528 168.309 109.474 172.711 118.304 171.718C130.254 170.385 135.23 156.708 136.515 152.357L133.625 148.577L128.056 149.86Z" fill="url(#paint1_linear)"/>
<path fill-rule="evenodd" clip-rule="evenodd" d="M174.441 72.6238C172.133 71.8217 169.615 73.0349 168.812 75.331L160.053 100.348L160.535 107.898L168.401 103.266L177.16 78.2488C177.963 75.9527 176.749 73.436 174.441 72.6238Z" fill="#E1DFDD"/>
<path fill-rule="evenodd" clip-rule="evenodd" d="M145.244 62.4168C142.936 61.6146 140.418 62.8279 139.615 65.124L130.856 90.1407V101.22L139.194 93.0585L147.953 68.0418C148.766 65.7457 147.542 63.2189 145.244 62.4168Z" fill="#E1DFDD"/>
<path d="M177.763 106.545L121.485 86.8722C119.749 86.2605 117.843 87.183 117.231 88.9176L110.308 108.7C104.569 125.084 112.475 142.912 128.047 149.87L136.515 152.377C152.017 154.793 167.518 145.91 172.886 130.589L179.809 110.806C180.421 109.061 179.508 107.156 177.763 106.545Z" fill="#72ACF1"/>
<defs>
<radialGradient id="paint0_radial" cx="0" cy="0" r="1" gradientUnits="userSpaceOnUse" gradientTransform="translate(149.263 122.81) scale(71.7114 71.6635)">
<stop stop-color="#797673"/>
<stop offset="0.1119" stop-color="#8B8885"/>
<stop offset="0.3762" stop-color="#B0AEAB"/>
<stop offset="0.6208" stop-color="#CBC9C7"/>
<stop offset="0.8363" stop-color="#DBD9D7"/>
<stop offset="0.9996" stop-color="#E1DFDD"/>
</radialGradient>
<linearGradient id="paint1_linear" x1="122.542" y1="139.059" x2="109.141" y2="154.384" gradientUnits="userSpaceOnUse">
<stop offset="0.000351356" stop-color="#2970B8"/>
<stop offset="0.8409" stop-color="#72ACF1"/>
</linearGradient>
</defs>
</svg>
